<?xml version="1.0" encoding="utf-8"?>
<!-- Generator: Adobe Illustrator 18.0.0, SVG Export Plug-In . SVG Version: 6.00 Build 0)  -->
<!DOCTYPE svg PUBLIC "-//W3C//DTD SVG 1.1//EN" "http://www.w3.org/Graphics/SVG/1.1/DTD/svg11.dtd">
<svg version="1.1" id="Capa_1" xmlns="http://www.w3.org/2000/svg" xmlns:xlink="http://www.w3.org/1999/xlink" x="0px" y="0px"
	 viewBox="0 0 469.2 469.2" enable-background="new 0 0 469.2 469.2" xml:space="preserve">
<path d="M469.2,223.3c0-32.4-26.3-58.7-58.7-58.7c-18.1,0-34.7,8.1-45.8,21.9c-31.1-14.1-66.5-22.9-104-25.6l32.2-101.8l71.9,15.6
	c5.5,21.4,25,37.3,48.1,37.3c27.4,0,49.7-22.3,49.7-49.7S440.4,12.6,413,12.6c-19.8,0-36.9,11.6-44.9,28.4l-83-18
	c-8.5-1.8-16.9,3.1-19.5,11.3L225.8,160c-43.9,1.1-85.5,10.2-121.3,26.5c-11.1-13.8-27.7-21.9-45.8-21.9C26.3,164.6,0,190.9,0,223.3
	c0,15.7,6.2,30.5,17.1,41.4c-6.5,14-9.9,28.6-9.9,43.5c0,40.3,24.1,78,68,106c42.7,27.3,99.3,42.3,159.3,42.3
	c60.1,0,116.6-15,159.3-42.3c43.8-28,68-65.7,68-106c0-14.9-3.3-29.5-9.9-43.5C463,253.8,469.2,239,469.2,223.3z M25.8,243.4
	c-3.7-6-5.7-12.9-5.7-20.1c0-21.3,17.3-38.6,38.6-38.6c9.1,0,17.7,3.1,24.6,8.8C58.7,207.5,39.4,224.2,25.8,243.4z M114.1,277.4
	c0-23.1,18.8-41.9,41.9-41.9s41.9,18.8,41.9,41.9s-18.8,41.9-41.9,41.9C132.9,319.3,114.1,300.5,114.1,277.4z M320.6,373.1
	c-16.3,17.8-49.3,28.9-86,28.9c-36.7,0-69.7-11.1-86-28.9c-3-3.3-4.6-7.6-4.4-12.1c0.2-4.5,2.1-8.6,5.4-11.6
	c3.1-2.8,7.1-4.4,11.3-4.4c4.7,0,9.2,2,12.4,5.4c9.7,10.6,34.9,18,61.3,18s51.5-7.4,61.3-18c3.2-3.5,7.7-5.4,12.4-5.4
	c4.2,0,8.2,1.6,11.3,4.4c3.3,3,5.2,7.2,5.4,11.6C325.2,365.5,323.6,369.8,320.6,373.1z M313.1,319.3c-23.1,0-41.9-18.8-41.9-41.9
	s18.8-41.9,41.9-41.9c23.1,0,41.9,18.8,41.9,41.9S336.3,319.3,313.1,319.3z M443.4,243.4c-13.7-19.2-33-36-57.5-49.9
	c6.9-5.7,15.4-8.8,24.6-8.8c21.3,0,38.6,17.3,38.6,38.6C449,230.5,447.1,237.4,443.4,243.4z"/>
</svg>
