<?xml version="1.0" encoding="utf-8"?>
<!-- Generator: Adobe Illustrator 18.0.0, SVG Export Plug-In . SVG Version: 6.00 Build 0)  -->
<!DOCTYPE svg PUBLIC "-//W3C//DTD SVG 1.1//EN" "http://www.w3.org/Graphics/SVG/1.1/DTD/svg11.dtd">
<svg version="1.1" id="Layer_1" xmlns="http://www.w3.org/2000/svg" xmlns:xlink="http://www.w3.org/1999/xlink" x="0px" y="0px"
	 viewBox="0 0 294.1 294.1" enable-background="new 0 0 294.1 294.1" xml:space="preserve">
<path d="M-271.8,42.3l-39.3-39.3c-3.9-3.9-10.2-3.9-14.1,0l-117,117l-37.5,37.5l-14.3-14.3l-51.4-51.4c-3.9-3.9-10.2-3.9-14.1,0
	l-39.3,39.3c-3.9,3.9-3.9,10.2,0,14.1l112.1,112.1c3.9,3.9,10.2,3.9,14.1,0l201-201C-267.9,52.5-267.9,46.2-271.8,42.3z"/>
<path d="M220.8,167.3l-20.2-20.2l37-37l53.7-53.7c3.9-3.9,3.9-10.2,0-14.1L251.9,2.9C248-1,241.6-1,237.7,2.9l-66.3,66.3l-24.3,24.3
	l-24-24L56.4,2.9C52.5-1,46.2-1,42.3,2.9L2.9,42.3C-1,46.2-1,52.5,2.9,56.4L64,117.5l29.6,29.6l-31.3,31.3L2.9,237.7
	c-3.9,3.9-3.9,10.2,0,14.1l39.3,39.3c3.9,3.9,10.2,3.9,14.1,0l64.2-64.2l26.4-26.4l25,25l65.6,65.6c3.9,3.9,10.2,3.9,14.1,0
	l39.3-39.3c3.9-3.9,3.9-10.2,0-14.1L220.8,167.3z"/>
<circle fill="#37474F" cx="863.7" cy="250" r="250"/>
<path fill="#D0D8DC" d="M890.8,297.6v-20.3H928l53.9,0c3.9,0,7.1-3.2,7.1-7.1l0-39.5c0-3.9-3.2-7.1-7.1-7.1l-66.6,0h-24.4v-24.1v-67
	c0-3.9-3.2-7.1-7.1-7.1l-39.5,0c-3.9,0-7.1,3.2-7.1,7.1l0,61.3v29.7h-31.5l-59.6,0c-3.9,0-7.1,3.2-7.1,7.1v39.5
	c0,3.9,3.2,7.1,7.1,7.1l64.5,0h26.6l0,25.1v65.9c0,3.9,3.2,7.1,7.1,7.1l39.5,0c3.9,0,7.1-3.2,7.1-7.1V297.6z"/>
</svg>
