<?xml version="1.0" encoding="utf-8"?>
<!-- Generator: Adobe Illustrator 20.0.0, SVG Export Plug-In . SVG Version: 6.00 Build 0)  -->
<svg version="1.1" id="Layer_1" xmlns="http://www.w3.org/2000/svg" xmlns:xlink="http://www.w3.org/1999/xlink" x="0px" y="0px"
	 viewBox="0 0 751.8 160" style="enable-background:new 0 0 751.8 160;" xml:space="preserve">
<style type="text/css">
	.st0{fill:#263238;stroke:#000000;stroke-miterlimit:10;}
</style>
<circle id="XMLID_3_" class="st0" cx="952.9" cy="-542" r="0"/>
<g id="XMLID_68_">
	<g id="XMLID_70_">
		<g id="XMLID_76_">
			<path id="XMLID_120_" d="M164.6,129.2V10.5h46.5c14.3,0,25.4,3.4,33.4,10.2c8,6.8,11.9,16.6,11.9,29.4c0,9.5-2.4,17.5-7.2,23.9
				c-4.8,6.4-11.3,10.8-19.7,13.3v0.6l29.5,38v3.4h-14.5l-30.6-39.4h-35.5v39.4H164.6z M178.4,76.9h34.1c9.1,0,16.3-2.2,21.6-6.7
				c5.3-4.4,8-11,8-19.8c0-9-2.8-15.7-8.3-20.3c-5.5-4.6-13.2-6.9-23-6.9h-32.5V76.9z"/>
			<path id="XMLID_87_" d="M271.5,87.8c0-12.7,3.6-23.2,10.7-31.4c7.1-8.2,16.5-12.3,28.3-12.3c11.6,0,20.6,3.9,27,11.6
				c6.4,7.8,9.6,17.7,9.6,29.7v3.4h-61.7c0.2,9.9,3,17.6,8.4,23c5.4,5.4,12.3,8.1,20.7,8.1c4.5,0,8.7-0.7,12.7-2
				c3.9-1.3,6.7-2.7,8.4-4l2.5-1.9l5.1,9.9c-0.3,0.3-0.6,0.6-1.1,1c-0.5,0.4-1.6,1.2-3.3,2.3c-1.8,1.1-3.7,2.1-5.7,2.9
				c-2.1,0.8-4.8,1.6-8.3,2.3c-3.5,0.7-7.1,1-11,1c-12.8,0-23-4-30.7-12C275.4,111.4,271.5,100.9,271.5,87.8 M286.1,77.7h47.1
				c-1-7.2-3.4-12.7-7.2-16.5c-3.9-3.8-9.1-5.6-15.6-5.6C296.8,55.6,288.7,62.9,286.1,77.7"/>
			<path id="XMLID_86_" d="M354.4,46.1h15.2l25.8,61.5c0.9,2.1,1.4,3.9,1.4,5.5h0.8c0-1.4,0.5-3.2,1.5-5.5l25.8-61.5h15l-38,83.1
				h-9.5L354.4,46.1z"/>
			<path id="XMLID_83_" d="M455.9,25.2c-1.8-1.7-2.7-3.9-2.7-6.5c0-2.6,0.9-4.8,2.7-6.6c1.8-1.8,4-2.7,6.6-2.7s4.8,0.9,6.6,2.7
				c1.8,1.8,2.7,4,2.7,6.6c0,2.6-0.9,4.7-2.7,6.5c-1.8,1.7-4,2.6-6.6,2.6S457.7,27,455.9,25.2 M455.7,46.1h13.8v83.1h-13.8V46.1z"/>
			<path id="XMLID_82_" d="M490.7,121l6.1-9.5c0.3,0.2,0.8,0.5,1.4,0.9c0.6,0.4,1.8,1.1,3.7,2c1.9,0.9,3.9,1.8,5.9,2.5
				c2.1,0.7,4.7,1.4,7.8,1.9c3.2,0.6,6.3,0.9,9.5,0.9c6.5,0,11.3-1.1,14.4-3.3c3.1-2.2,4.6-5.2,4.6-9c0-2.5-1-4.7-3-6.5
				c-2-1.8-4.6-3.2-7.7-4.2c-3.2-1-6.6-2.1-10.3-3.3c-3.7-1.2-7.4-2.4-11.3-3.6c-3.8-1.2-7.3-2.7-10.5-4.5c-3.2-1.8-5.7-4.1-7.7-7.1
				c-2-3-2.9-6.6-2.9-10.6c0-6.9,2.6-12.5,7.7-16.9c5.2-4.4,12.8-6.5,22.9-6.5c6.2,0,12,0.6,17.5,1.7c5.5,1.1,9.4,2.2,11.8,3.4
				l3.6,1.6l-5.5,11.6c-0.8-0.5-1.9-1.1-3.3-1.9c-1.4-0.7-4.4-1.7-8.9-3c-4.5-1.3-9.2-1.9-13.9-1.9c-12.8,0-19.2,3.8-19.2,11.4
				c0,2.4,1,4.4,3,6c2,1.7,4.6,3,7.7,3.9c3.2,0.9,6.6,1.9,10.3,3c3.7,1.1,7.5,2.2,11.4,3.3c3.8,1.1,7.3,2.6,10.4,4.4
				c3.1,1.8,5.7,4.3,7.6,7.6c2,3.2,2.9,7.1,2.9,11.5c0,7.1-2.6,12.9-7.8,17.5c-5.2,4.6-13.3,6.9-24.2,6.9c-4.4,0-8.6-0.4-12.5-1.1
				c-4-0.7-7.2-1.5-9.7-2.5c-2.5-1-4.7-2-6.6-3c-1.9-1-3.2-1.8-4.1-2.5L490.7,121z"/>
			<path id="XMLID_79_" d="M577.6,25.2c-1.8-1.7-2.7-3.9-2.7-6.5c0-2.6,0.9-4.8,2.7-6.6c1.8-1.8,4-2.7,6.6-2.7
				c2.6,0,4.8,0.9,6.6,2.7c1.8,1.8,2.7,4,2.7,6.6c0,2.6-0.9,4.7-2.7,6.5c-1.8,1.7-4,2.6-6.6,2.6C581.6,27.8,579.4,27,577.6,25.2
				 M577.4,46.1h13.8v83.1h-13.8V46.1z"/>
			<path id="XMLID_78_" d="M608.7,57.2V46.1h15.5V35.8c0-8.6,2.5-15.4,7.5-20.4c5-5,11.8-7.4,20.5-7.4c3.3,0,6.5,0.3,9.4,1
				c2.9,0.7,5,1.3,6.2,2l1.9,1l-4.2,11c-3.8-1.9-8.1-2.9-13-2.9c-4.4,0-8,1.4-10.6,4.1c-2.6,2.7-3.9,6.5-3.9,11.5v10.5h24.5v11.1
				H638v72h-13.8v-72H608.7z"/>
			<path id="XMLID_77_" d="M667.4,46.1h15l26.2,61.5c0.9,2.7,1.4,4.5,1.4,5.5h0.8c0-1.4,0.4-3.2,1.2-5.5l26-61.5h14L701.6,160h-14.3
				l16.2-34.8L667.4,46.1z"/>
		</g>
		<g id="XMLID_71_">
			<path id="XMLID_75_" d="M137.4,29.9c0,16.5-13.4,30-29.9,30c-16.5,0-29.9-13.4-29.9-30C77.5,13.4,90.9,0,107.5,0
				C124,0,137.4,13.4,137.4,29.9"/>
			<path id="XMLID_74_" d="M59.9,29.9c0,16.5-13.4,30-29.9,30C13.4,59.9,0,46.5,0,29.9C0,13.4,13.4,0,29.9,0
				C46.5,0,59.9,13.4,59.9,29.9"/>
			<path id="XMLID_73_" d="M137.4,107.9c0,16.5-13.4,29.9-29.9,29.9c-16.5,0-29.9-13.4-29.9-29.9c0-16.5,13.4-29.9,29.9-29.9
				C124,78,137.4,91.4,137.4,107.9"/>
			<path id="XMLID_72_" d="M60.4,107.9c0,16.5-13.4,29.9-29.9,29.9c-16.5,0-29.9-13.4-29.9-29.9C0.5,91.4,13.9,78,30.5,78
				C47,78,60.4,91.4,60.4,107.9"/>
		</g>
	</g>
</g>
</svg>
