<?xml version="1.0" encoding="utf-8"?>
<!-- Generator: Adobe Illustrator 18.0.0, SVG Export Plug-In . SVG Version: 6.00 Build 0)  -->
<!DOCTYPE svg PUBLIC "-//W3C//DTD SVG 1.1//EN" "http://www.w3.org/Graphics/SVG/1.1/DTD/svg11.dtd">
<svg version="1.1" id="Capa_1" xmlns="http://www.w3.org/2000/svg" xmlns:xlink="http://www.w3.org/1999/xlink" x="0px" y="0px"
	 viewBox="-3.6 -3.6 100 100" enable-background="new -3.6 -3.6 100 100" xml:space="preserve">
<g>
	<g>
		<path d="M93.2,1.8H-0.4c-1.8,0-3.2,1.3-3.2,3v13.3c0,1.7,1.4,3,3.2,3h93.5c1.8,0,3.2-1.3,3.2-3V4.8C96.4,3.1,95,1.8,93.2,1.8z"/>
		<path d="M93.2,36.8H-0.4c-1.8,0-3.2,1.3-3.2,3v13.3c0,1.7,1.4,3,3.2,3h93.5c1.8,0,3.2-1.3,3.2-3V39.8C96.4,38.1,95,36.8,93.2,36.8
			z"/>
		<path d="M93.2,71.8H-0.4c-1.8,0-3.2,1.3-3.2,3v13.3c0,1.7,1.4,3,3.2,3h93.5c1.8,0,3.2-1.3,3.2-3V74.8C96.4,73.1,95,71.8,93.2,71.8
			z"/>
	</g>
</g>
</svg>
