<?xml version="1.0" encoding="utf-8"?>
<!-- Generator: Adobe Illustrator 19.0.0, SVG Export Plug-In . SVG Version: 6.00 Build 0)  -->
<svg version="1.1" id="Layer_1" xmlns="http://www.w3.org/2000/svg" xmlns:xlink="http://www.w3.org/1999/xlink" x="0px" y="0px"
	 viewBox="-8.3 26.3 50 50" style="enable-background:new -8.3 26.3 50 50;" xml:space="preserve">
<g>
	<path d="M16.7,40.3c-3.6,0-6.4,3.3-6.4,7.3c0,4,2.9,7.3,6.4,7.3c3.6,0,6.4-3.3,6.4-7.3C23.1,43.6,20.2,40.3,16.7,40.3"/>
	<path d="M31,73V62.4c0-2.8-2.2-5-5-5H7.3c-2.8,0-5,2.2-5,5V73H31z"/>
</g>
<g>
	<g>
		<path d="M36.2,31.8v39h-39v-39H36.2 M41.7,26.3h-50v50h50V26.3L41.7,26.3z"/>
	</g>
</g>
</svg>
